<?xml version="1.0" standalone="no"?>
<!DOCTYPE svg PUBLIC "-//W3C//DTD SVG 20010904//EN"
 "http://www.w3.org/TR/2001/REC-SVG-20010904/DTD/svg10.dtd">
<svg version="1.0" xmlns="http://www.w3.org/2000/svg"
 width="259.000000pt" height="195.000000pt" viewBox="0 0 259.000000 195.000000"
 preserveAspectRatio="xMidYMid meet">

<g transform="translate(0.000000,195.000000) scale(0.100000,-0.100000)"
fill="#000000" stroke="none">
<path d="M58 1918 c-13 -13 -17 -18 -8 -12 8 6 24 16 35 22 11 6 15 12 8 12
-7 0 -22 -10 -35 -22z"/>
<path d="M2100 1936 c0 -2 7 -7 16 -10 8 -3 12 -2 9 4 -6 10 -25 14 -25 6z"/>
<path d="M2140 1916 c0 -2 8 -10 18 -17 15 -13 16 -12 3 4 -13 16 -21 21 -21
13z"/>
<path d="M13 1865 c-3 -9 -3 -18 -1 -21 3 -3 8 4 11 16 6 23 -1 27 -10 5z"/>
<path d="M0 1480 l0 -190 195 0 195 0 0 -400 0 -399 -142 -4 -143 -3 148 -2
147 -2 0 -199 c0 -188 1 -200 22 -226 45 -57 3 -55 1070 -55 916 0 985 1 1017
18 19 9 44 30 55 45 21 28 21 37 21 671 0 715 4 673 -68 716 -28 17 -51 20
-174 20 l-142 0 -3 98 -3 97 -1097 3 -1098 2 0 -190z m1034 -321 c15 -12 26
-30 26 -45 l0 -24 -210 0 -210 0 0 24 c0 15 11 33 26 45 24 19 40 21 184 21
144 0 160 -2 184 -21z m-264 -164 l0 -75 -65 0 -65 0 0 75 0 75 65 0 65 0 0
-75z m140 0 l0 -75 -60 0 -60 0 0 75 0 75 60 0 60 0 0 -75z m150 0 l0 -75 -65
0 -65 0 0 75 0 75 65 0 65 0 0 -75z m0 -114 c0 -54 -24 -61 -212 -61 -155 0
-170 2 -188 20 -11 11 -20 31 -20 45 l0 25 210 0 210 0 0 -29z m878 -246 c20
-9 47 -25 59 -37 l22 -21 35 31 c86 75 233 44 288 -61 67 -130 -28 -287 -174
-287 -36 0 -96 25 -124 51 l-22 20 -47 -33 c-41 -29 -54 -33 -110 -33 -54 0
-70 4 -107 30 -50 35 -88 102 -88 157 0 139 142 235 268 183z m-420 -47 c15
-15 15 -51 0 -66 -9 -9 -124 -12 -454 -12 l-443 0 -15 22 c-20 28 -20 33 0 52
14 14 69 16 458 16 330 0 445 -3 454 -12z m-210 -200 c16 -16 15 -53 -2 -67
-9 -8 -110 -11 -351 -9 -328 3 -338 4 -351 23 -12 18 -11 24 2 43 15 22 16 22
353 22 249 0 340 -3 349 -12z"/>
<path d="M40 525 c13 -14 26 -25 28 -25 3 0 -5 11 -18 25 -13 14 -26 25 -28
25 -3 0 5 -11 18 -25z"/>
</g>
</svg>
