<?xml version="1.0" standalone="no"?>
<!DOCTYPE svg PUBLIC "-//W3C//DTD SVG 20010904//EN"
 "http://www.w3.org/TR/2001/REC-SVG-20010904/DTD/svg10.dtd">
<svg version="1.0" xmlns="http://www.w3.org/2000/svg"
 width="225.000000pt" height="225.000000pt" viewBox="0 0 225.000000 225.000000"
 preserveAspectRatio="xMidYMid meet">

<g transform="translate(0.000000,225.000000) scale(0.100000,-0.100000)"
fill="#000000" stroke="none">
<path d="M135 1855 c-51 -18 -110 -81 -124 -131 -15 -55 -15 -1144 0 -1199 15
-52 82 -119 134 -134 56 -15 1904 -15 1960 0 52 15 119 82 134 134 7 27 11
198 11 516 0 390 -2 479 -14 488 -10 8 -247 10 -877 9 l-864 -3 -3 -23 c-8
-54 -37 -52 734 -52 l714 0 0 -120 0 -120 -930 0 -930 0 0 120 0 120 149 0
c123 0 152 3 165 16 19 18 19 20 6 45 -10 18 -23 19 -166 19 l-156 0 4 90 c3
86 4 91 36 122 l32 33 960 3 c848 2 964 0 990 -13 35 -18 60 -53 69 -97 8 -39
34 -57 59 -42 61 39 -25 196 -123 223 -28 8 -322 11 -985 11 -789 -1 -952 -3
-985 -15z m2035 -1007 c0 -273 -1 -295 -20 -325 -41 -67 22 -64 -1040 -61
l-960 3 -32 33 -33 32 -3 305 -3 305 1046 0 1045 0 0 -292z"/>
</g>
</svg>
