<?xml version="1.0" standalone="no"?>
<!DOCTYPE svg PUBLIC "-//W3C//DTD SVG 20010904//EN"
 "http://www.w3.org/TR/2001/REC-SVG-20010904/DTD/svg10.dtd">
<svg version="1.0" xmlns="http://www.w3.org/2000/svg"
 width="1200.000000pt" height="1200.000000pt" viewBox="0 0 1200.000000 1200.000000"
 preserveAspectRatio="xMidYMid meet">

<g transform="translate(0.000000,1200.000000) scale(0.100000,-0.100000)"
fill="#000000" stroke="none">
<path d="M2615 11889 c-514 -45 -1000 -232 -1423 -548 -164 -122 -407 -365
-528 -526 -300 -401 -468 -811 -541 -1325 -17 -118 -18 -310 -18 -3480 0
-3606 -3 -3415 51 -3694 82 -421 282 -849 560 -1196 88 -109 295 -316 404
-404 335 -268 747 -465 1150 -551 63 -13 116 -22 119 -20 2 3 -254 1905 -570
4227 -560 4124 -574 4227 -573 4378 1 119 6 176 22 245 112 489 486 865 955
960 69 14 8675 1275 8707 1275 18 1 -8 24 -142 125 -402 303 -900 490 -1421
534 -157 13 -6599 13 -6752 0z"/>
<path d="M7866 9104 c-32 -10 -64 -31 -95 -62 -87 -87 -81 20 -81 -1399 0
-1365 -3 -1282 55 -1359 14 -18 53 -46 86 -63 159 -79 348 -6 394 152 14 47
15 196 13 1303 l-3 1249 -29 53 c-65 116 -203 167 -340 126z"/>
<path d="M3754 8836 c-69 -17 -118 -49 -154 -100 -77 -113 -61 -258 39 -349
73 -66 83 -67 658 -67 282 0 513 -3 513 -7 0 -5 -277 -363 -616 -798 -443
-569 -625 -811 -652 -864 -34 -69 -37 -82 -37 -160 0 -74 4 -94 29 -144 34
-70 92 -117 186 -149 l65 -23 818 -3 c890 -3 888 -3 976 53 22 13 53 46 68 72
26 44 28 56 28 153 0 92 -3 110 -24 147 -27 47 -63 77 -124 101 -37 15 -108
18 -626 22 l-583 5 517 669 c649 840 686 891 756 1039 28 60 31 75 27 140 -6
128 -62 204 -185 250 -58 22 -63 22 -843 24 -601 1 -797 -1 -836 -11z"/>
<path d="M6380 8089 c-337 -51 -623 -326 -711 -684 -30 -119 -36 -325 -15
-453 63 -376 299 -661 623 -754 105 -30 336 -33 427 -4 91 27 167 69 229 126
l56 51 24 -38 c76 -120 219 -163 349 -105 59 26 105 67 131 116 l22 41 3 739
c2 726 2 739 -18 781 -27 55 -85 113 -138 137 -52 24 -173 26 -225 5 -46 -20
-112 -80 -127 -117 -7 -17 -15 -30 -17 -30 -3 0 -30 23 -61 51 -65 57 -149
102 -237 124 -77 20 -232 27 -315 14z m335 -530 c55 -17 78 -31 121 -73 96
-97 152 -253 139 -386 -20 -205 -94 -339 -223 -402 -61 -30 -74 -33 -162 -33
-88 0 -101 3 -162 33 -108 53 -182 160 -213 307 -54 257 60 495 268 560 63 20
156 18 232 -6z"/>
<path d="M9169 8075 c-369 -58 -657 -321 -756 -691 -24 -89 -26 -116 -26 -274
0 -157 2 -185 26 -272 70 -263 249 -485 482 -599 269 -131 612 -131 870 -1
309 155 473 409 506 782 27 305 -41 547 -206 741 -220 258 -538 369 -896 314z
m333 -527 c101 -47 189 -164 218 -293 27 -118 2 -299 -57 -407 -67 -124 -203
-197 -342 -185 -90 8 -152 31 -204 78 -93 81 -145 198 -154 346 -11 169 29
286 132 390 50 50 73 65 126 82 90 29 202 25 281 -11z"/>
</g>
</svg>
